<?xml version="1.0" encoding="utf-8"?>
<!-- Generator: Adobe Illustrator 25.4.1, SVG Export Plug-In . SVG Version: 6.00 Build 0)  -->
<svg version="1.1" id="Layer_1" xmlns="http://www.w3.org/2000/svg" xmlns:xlink="http://www.w3.org/1999/xlink" x="0px" y="0px"
	 viewBox="0 0 720 504" style="enable-background:new 0 0 720 504;" xml:space="preserve">
<style type="text/css">
	.st0{display:none;}
	.st1{display:inline;fill-rule:evenodd;clip-rule:evenodd;fill:#F5A623;}
	.st2{display:inline;fill:#F5A623;}
	.st3{display:inline;}
	.st4{display:inline;clip-path:url(#SVGID_00000153675351580251984220000003997126947072659631_);}
	.st5{fill-rule:evenodd;clip-rule:evenodd;fill:#5396D1;}
	.st6{fill:#5396D1;}
	.st7{display:inline;fill:#A674E5;}
	.st8{display:inline;fill:#E2B619;}
	.st9{display:inline;fill:#95CA51;}
	.st10{display:inline;fill-rule:evenodd;clip-rule:evenodd;fill:#95CA51;}
	.st11{fill-rule:evenodd;clip-rule:evenodd;}
	.st12{display:inline;fill:#E7544C;}
	.st13{fill:#CD4B52;}
	.st14{fill:#FFFFFF;}
</style>
<g>
	<g>
		<g>
			<path class="st13" d="M234.66,302.3h-16.07v-10.72h43.77v10.72h-16.07v42.11h-11.62V302.3z"/>
			<path class="st13" d="M265.98,330.14v-26.18h11.47v22.56c0,5.43,2.57,8.22,6.94,8.22c4.38,0,7.17-2.79,7.17-8.22v-22.56h11.47
				v40.45h-11.47v-5.74c-2.64,3.4-6.04,6.49-11.85,6.49C271.03,345.16,265.98,339.42,265.98,330.14z"/>
			<path class="st13" d="M313.29,303.96h11.47v8.15c2.34-5.58,6.11-9.21,12.9-8.9v12h-0.6c-7.62,0-12.3,4.6-12.3,14.26v14.94h-11.47
				V303.96z"/>
			<path class="st13" d="M344.83,303.96h11.47v5.74c2.64-3.4,6.11-6.49,11.92-6.49c5.28,0,9.28,2.34,11.39,6.41
				c3.55-4.15,7.77-6.41,13.28-6.41c8.53,0,13.66,5.13,13.66,14.87v26.34h-11.47v-22.56c0-5.43-2.41-8.23-6.72-8.23
				c-4.3,0-6.94,2.79-6.94,8.23v22.56h-11.47v-22.56c0-5.43-2.41-8.23-6.72-8.23c-4.3,0-6.94,2.79-6.94,8.23v22.56h-11.47V303.96z"
				/>
			<path class="st13" d="M414.56,324.41v-0.15c0-11.62,9.36-21.05,21.96-21.05c12.53,0,21.81,9.28,21.81,20.9v0.15
				c0,11.62-9.36,21.05-21.96,21.05C423.84,345.31,414.56,336.03,414.56,324.41z M447.01,324.41v-0.15c0-5.96-4.3-11.17-10.64-11.17
				c-6.56,0-10.49,5.06-10.49,11.02v0.15c0,5.96,4.3,11.17,10.64,11.17C443.09,335.42,447.01,330.37,447.01,324.41z"/>
			<path class="st13" d="M466.86,289.32h12.07v10.19h-12.07V289.32z M467.16,303.96h11.47v40.45h-11.47V303.96z"/>
			<path class="st13" d="M489.95,289.32h11.47v55.08h-11.47V289.32z"/>
		</g>
		<g>
			<path class="st13" d="M400.71,211.87c-0.47,14.16-8.09,26.44-19.38,33.35l4.16,10.22c15.26-8.75,25.8-25.04,26.3-43.57H400.71z
				 M319.29,210.49c0-22.58,18.14-40.73,40.72-40.73c20.46,0,37.27,14.9,40.26,34.5h11.15c-3.07-25.47-24.77-45.57-51.41-45.57
				c-28.32,0-51.78,23.46-51.78,51.8c0,28.32,23.46,51.78,51.78,51.78c5.9,0,11.59-1.02,16.9-2.89v-11.81
				c-5.14,2.34-10.86,3.63-16.9,3.63C337.43,251.2,319.29,233.06,319.29,210.49z"/>
			<g>
				<circle class="st13" cx="375.95" cy="192.28" r="6.04"/>
				<circle class="st13" cx="360" cy="210.48" r="12.16"/>
			</g>
			<rect x="360.33" y="206.65" class="st13" width="68" height="7.67"/>
			<circle class="st13" cx="430.03" cy="210.48" r="9.1"/>
			<g>
				
					<rect x="369.45" y="208.04" transform="matrix(0.9259 -0.3778 0.3778 0.9259 -63.7726 158.9505)" class="st13" width="7.67" height="68"/>
				<circle class="st13" cx="386.78" cy="275.09" r="9.1"/>
			</g>
		</g>
	</g>
</g>
</svg>
